<svg width="180" height="40" viewBox="0 0 180 40" fill="none" xmlns="http://www.w3.org/2000/svg">
<path fill-rule="evenodd" clip-rule="evenodd" d="M0 30.1108C0 29.8458 0.111558 29.5945 0.305056 29.4147C0.499223 29.2378 0.758484 29.148 1.0202 29.1724L1.3749 29.2047L1.39889 21.1595C1.40781 19.4712 2.68677 18.06 4.36255 17.8937L8.47169 14.965L9.52429 11.0995H9.34525C9.02056 11.0995 8.71773 10.9315 8.54816 10.6532C8.37586 10.3754 8.3608 10.0299 8.50632 9.73704L9.91196 6.91532C10.0296 6.68124 10.2366 6.50596 10.4848 6.43373L15.9712 4.81315L16.9323 2.0435C17.0545 1.69183 17.3703 1.44656 17.7382 1.41352L34.6182 0.00292969C34.7906 -0.0105095 34.9624 0.0225296 35.1169 0.101486L59.5292 13.7795C59.8193 13.9453 60 14.2583 60 14.5954V26.827C60 27.2868 59.6687 27.6805 59.218 27.7549L57.442 28.0524C57.3025 22.9576 54.7227 21.127 52.4983 21.127C50.2124 21.127 47.5434 23.0517 47.5434 28.4746C47.5434 28.9074 47.5652 29.3099 47.5975 29.6991L39.5251 31.0487C39.4749 31.0577 39.4225 31.0623 39.3701 31.0623C39.1219 31.0623 38.8842 30.9636 38.708 30.7867C38.5334 30.609 38.4335 30.3706 38.4335 30.1215V29.9025L36.9191 30.5128C36.6313 30.6287 36.3022 30.5939 36.0456 30.4188C35.7885 30.2439 35.6334 29.9506 35.6334 29.6404V29.1678C35.6513 27.7964 35.3897 26.8624 34.8603 26.3768C34.104 25.6851 32.6989 25.7727 31.073 25.9457L31.0187 25.9525C29.11 26.1511 27.6587 27.7678 27.6632 29.6947V34.8135C27.6632 35.2816 27.319 35.6797 26.8571 35.7453C26.8571 35.7453 16.9233 37.1671 16.88 37.1671C16.8514 37.1671 16.8236 37.1647 16.7974 37.1625L0.856768 35.7521C0.372604 35.7083 0 35.3013 0 34.8135V30.1108ZM38.4118 3.87238L35.6206 2.4618V24.609C35.7991 24.7187 35.967 24.843 36.1215 24.9852C36.9214 25.716 37.3681 26.79 37.4814 28.2578L38.4118 27.8837V3.87238ZM29.6807 10.0848C26.5648 9.74153 17.5465 10.3015 11.5503 10.8217L10.7443 14.3787L28.3387 14.0875L29.6807 10.0848ZM4.62359 19.7663C3.87448 19.7948 3.27926 20.4114 3.2753 21.1662L3.25137 29.3688L15.9104 30.4909L15.9343 21.1752C15.9367 20.8011 15.7884 20.4399 15.5245 20.1751C15.2611 19.9085 14.9014 19.7596 14.5266 19.7596H4.74123C4.7173 19.7618 4.69376 19.7708 4.66978 19.7708C4.65433 19.7708 4.63904 19.7663 4.62359 19.7663ZM16.7974 32.4576L1.87647 31.1366V33.9516L16.8536 35.2794L25.7872 33.9976V31.1955L17.0127 32.4533C16.9412 32.4622 16.8693 32.4644 16.7974 32.4576Z" fill="#D25673"/>
<path fill-rule="evenodd" clip-rule="evenodd" d="M49.416 28.4746C49.416 25.1035 50.5969 23.0102 52.4973 23.0102C54.3993 23.0102 55.5779 25.1035 55.5779 28.4746C55.5779 31.8449 54.3993 33.9387 52.4973 33.9387C50.5969 33.9387 49.416 31.8449 49.416 28.4746ZM52.4973 24.8911C51.8324 24.8911 51.2919 26.4949 51.2919 28.4746C51.2919 30.4539 51.8324 32.0573 52.4973 32.0573C53.1638 32.0573 53.7043 30.4539 53.7043 28.4746C53.7043 26.4949 53.1638 24.8911 52.4973 24.8911Z" fill="#E49CAB"/>
<path fill-rule="evenodd" clip-rule="evenodd" d="M28.5859 33.8837C28.5859 30.9283 29.4488 27.7678 31.8697 27.7678C34.2882 27.7678 35.1512 30.9283 35.1512 33.8837C35.1512 36.8412 34.2882 40 31.8697 40C29.4488 40 28.5859 36.8412 28.5859 33.8837ZM31.8697 29.6509C31.0921 29.6509 30.4624 31.5454 30.4624 33.8837C30.4624 36.2223 31.0921 38.1184 31.8697 38.1184C32.6455 38.1184 33.2753 36.2223 33.2753 33.8837C33.2753 31.5454 32.6455 29.6509 31.8697 29.6509Z" fill="#E49CAB"/>
<path d="M73.0986 25.4727V23.3633C74.3584 23.832 75.7822 24.0664 77.3701 24.0664C79.2979 24.0664 80.2617 23.4219 80.2617 22.1328C80.2617 21.1953 79.6699 20.7266 78.4863 20.7266H76.5176C73.9453 20.7266 72.6592 19.5547 72.6592 17.2109C72.6592 14.6328 74.4902 13.3438 78.1523 13.3438C79.5586 13.3438 80.8916 13.5488 82.1514 13.959V16.0684C80.8916 15.5996 79.5586 15.3652 78.1523 15.3652C76.043 15.3652 74.9883 15.9805 74.9883 17.2109C74.9883 18.1484 75.498 18.6172 76.5176 18.6172H78.4863C81.2227 18.6172 82.5908 19.7891 82.5908 22.1328C82.5908 24.7695 80.8506 26.0879 77.3701 26.0879C75.7822 26.0879 74.3584 25.8828 73.0986 25.4727ZM84.5684 26V13.4316H86.8975V18.6172H93.0938V13.4316H95.4229V26H93.0938V20.6387H86.8975V26H84.5684ZM100.397 13.4316V26H98.0684V13.4316H100.397ZM103.043 26V13.4316H108.668C111.234 13.4316 112.518 14.6123 112.518 16.9736C112.518 19.5342 110.763 21.084 107.253 21.623L106.919 19.5488C109.028 19.168 110.083 18.333 110.083 17.0439C110.083 16.001 109.562 15.4795 108.519 15.4795H105.372V26H103.043ZM118.02 26V13.4316H120.349L126.984 22.5898V13.4316H129.226V26H126.896L120.261 16.6484V26H118.02ZM145.846 25.4199C144.832 25.8652 143.563 26.0879 142.04 26.0879C137.604 26.0879 135.387 23.9053 135.387 19.54C135.387 15.4092 137.643 13.3438 142.154 13.3438C143.531 13.3438 144.762 13.5488 145.846 13.959V16.0684C144.762 15.5996 143.59 15.3652 142.33 15.3652C139.312 15.3652 137.804 16.7568 137.804 19.54C137.804 22.5576 139.228 24.0664 142.075 24.0664C142.497 24.0664 142.978 23.9961 143.517 23.8555V20.1992H145.846V25.4199ZM149.335 26H146.944L152.279 13.4316H154.784L160.233 26H157.729L156.296 22.5723H152.121L152.921 20.5508H155.452L153.475 15.8311L149.335 26ZM164.101 13.4316V26H161.771V13.4316H164.101ZM166.746 26V13.4316H169.075L175.711 22.5898V13.4316H177.952V26H175.623L168.987 16.6484V26H166.746Z" fill="#D25673"/>
</svg>
